STARTFONT 2.1
COMMENT 
COMMENT Created by K. Odajima <odajima@mt.cs.keio.ac.jp>; public domain
COMMENT font from Japan
COMMENT 
FONT -Misc-Fixed-Medium-R-Normal--18-170-75-75-C-90-ISO8859-1
SIZE 18 75 75
FONTBOUNDINGBOX 9 18 0 -3
STARTPROPERTIES 19
FONTNAME_REGISTRY ""
FOUNDRY "Misc"
FAMILY_NAME "Fixed"
WEIGHT_NAME "Medium"
SLANT "R"
SETWIDTH_NAME "Normal"
ADD_STYLE_NAME ""
PIXEL_SIZE 18
POINT_SIZE 170
RESOLUTION_X 75
RESOLUTION_Y 75
SPACING "C"
AVERAGE_WIDTH 90
CHARSET_REGISTRY "ISO8859"
CHARSET_ENCODING "1"
DEFAULT_CHAR 32
FONT_DESCENT 3
FONT_ASCENT 15
COPYRIGHT "Public domain font.  Share and enjoy."
ENDPROPERTIES
CHARS 209
STARTCHAR 0001
ENCODING 1
SWIDTH 508 0
DWIDTH 9 0
BBX 8 16 1 -2
BITMAP
00
00
08
1C
1C
3E
3E
7F
7F
3E
3E
1C
1C
08
00
00
ENDCHAR
STARTCHAR 0002
ENCODING 2
SWIDTH 508 0
DWIDTH 9 0
BBX 8 16 1 -2
BITMAP
55
AA
55
AA
55
AA
55
AA
55
AA
55
AA
55
AA
55
AA
ENDCHAR
STARTCHAR 000b
ENCODING 11
SWIDTH 508 0
DWIDTH 9 0
BBX 8 16 1 -2
BITMAP
10
10
10
10
10
10
10
10
F0
00
00
00
00
00
00
00
ENDCHAR
STARTCHAR 000c
ENCODING 12
SWIDTH 508 0
DWIDTH 9 0
BBX 8 16 1 -2
BITMAP
00
00
00
00
00
00
00
00
F0
10
10
10
10
10
10
10
ENDCHAR
STARTCHAR 000d
ENCODING 13
SWIDTH 508 0
DWIDTH 9 0
BBX 8 16 1 -2
BITMAP
00
00
00
00
00
00
00
00
1F
10
10
10
10
10
10
10
ENDCHAR
STARTCHAR 000e
ENCODING 14
SWIDTH 508 0
DWIDTH 9 0
BBX 8 16 1 -2
BITMAP
10
10
10
10
10
10
10
10
1F
00
00
00
00
00
00
00
ENDCHAR
STARTCHAR 000f
ENCODING 15
SWIDTH 508 0
DWIDTH 9 0
BBX 8 16 1 -2
BITMAP
10
10
10
10
10
10
10
10
FF
10
10
10
10
10
10
10
ENDCHAR
STARTCHAR 0010
ENCODING 16
SWIDTH 508 0
DWIDTH 9 0
BBX 8 16 1 -2
BITMAP
00
00
FF
00
00
00
00
00
00
00
00
00
00
00
00
00
ENDCHAR
STARTCHAR 0011
ENCODING 17
SWIDTH 508 0
DWIDTH 9 0
BBX 8 16 1 -2
BITMAP
00
00
00
00
00
FF
00
00
00
00
00
00
00
00
00
00
ENDCHAR
STARTCHAR 0012
ENCODING 18
SWIDTH 508 0
DWIDTH 9 0
BBX 8 16 1 -2
BITMAP
00
00
00
00
00
00
00
00
FF
00
00
00
00
00
00
00
ENDCHAR
STARTCHAR 0013
ENCODING 19
SWIDTH 508 0
DWIDTH 9 0
BBX 8 16 1 -2
BITMAP
00
00
00
00
00
00
00
00
00
00
00
FF
00
00
00
00
ENDCHAR
STARTCHAR 0014
ENCODING 20
SWIDTH 508 0
DWIDTH 9 0
BBX 8 16 1 -2
BITMAP
00
00
00
00
00
00
00
00
00
00
00
00
00
00
FF
00
ENDCHAR
STARTCHAR 0015
ENCODING 21
SWIDTH 508 0
DWIDTH 9 0
BBX 8 16 1 -2
BITMAP
10
10
10
10
10
10
10
10
1F
10
10
10
10
10
10
10
ENDCHAR
STARTCHAR 0016
ENCODING 22
SWIDTH 508 0
DWIDTH 9 0
BBX 8 16 1 -2
BITMAP
10
10
10
10
10
10
10
10
F0
10
10
10
10
10
10
10
ENDCHAR
STARTCHAR 0017
ENCODING 23
SWIDTH 508 0
DWIDTH 9 0
BBX 8 16 1 -2
BITMAP
10
10
10
10
10
10
10
10
FF
00
00
00
00
00
00
00
ENDCHAR
STARTCHAR 0018
ENCODING 24
SWIDTH 508 0
DWIDTH 9 0
BBX 8 16 1 -2
BITMAP
00
00
00
00
00
00
00
00
FF
10
10
10
10
10
10
10
ENDCHAR
STARTCHAR 0019
ENCODING 25
SWIDTH 508 0
DWIDTH 9 0
BBX 8 16 1 -2
BITMAP
10
10
10
10
10
10
10
10
10
10
10
10
10
10
10
10
ENDCHAR
STARTCHAR 0020
ENCODING 32
SWIDTH 508 0
DWIDTH 9 0
BBX 8 16 1 -2
BITMAP
00
00
00
00
00
00
00
00
00
00
00
00
00
00
00
00
ENDCHAR
STARTCHAR 0021
ENCODING 33
SWIDTH 508 0
DWIDTH 9 0
BBX 8 16 1 -2
BITMAP
00
08
08
08
08
08
08
08
08
08
00
00
08
08
00
00
ENDCHAR
STARTCHAR 0022
ENCODING 34
SWIDTH 508 0
DWIDTH 9 0
BBX 8 16 1 -2
BITMAP
36
12
12
24
00
00
00
00
00
00
00
00
00
00
00
00
ENDCHAR
STARTCHAR 0023
ENCODING 35
SWIDTH 508 0
DWIDTH 9 0
BBX 8 16 1 -2
BITMAP
00
00
00
09
09
09
7F
12
12
12
7F
24
24
24
00
00
ENDCHAR
STARTCHAR 0024
ENCODING 36
SWIDTH 508 0
DWIDTH 9 0
BBX 8 16 1 -2
BITMAP
00
00
00
08
3E
49
49
28
1C
0A
49
49
3E
08
00
00
ENDCHAR
STARTCHAR 0025
ENCODING 37
SWIDTH 508 0
DWIDTH 9 0
BBX 8 16 1 -2
BITMAP
00
00
00
31
49
4A
34
08
08
16
29
49
46
00
00
00
ENDCHAR
STARTCHAR 0026
ENCODING 38
SWIDTH 508 0
DWIDTH 9 0
BBX 8 16 1 -2
BITMAP
00
00
00
1C
22
22
22
24
18
31
49
46
46
39
00
00
ENDCHAR
STARTCHAR 0027
ENCODING 39
SWIDTH 508 0
DWIDTH 9 0
BBX 8 16 1 -2
BITMAP
30
10
10
20
00
00
00
00
00
00
00
00
00
00
00
00
ENDCHAR
STARTCHAR 0028
ENCODING 40
SWIDTH 508 0
DWIDTH 9 0
BBX 8 16 1 -2
BITMAP
00
02
04
08
08
10
10
10
10
10
10
10
08
08
04
02
ENDCHAR
STARTCHAR 0029
ENCODING 41
SWIDTH 508 0
DWIDTH 9 0
BBX 8 16 1 -2
BITMAP
00
40
20
10
10
08
08
08
08
08
08
08
10
10
20
40
ENDCHAR
STARTCHAR 002a
ENCODING 42
SWIDTH 508 0
DWIDTH 9 0
BBX 8 16 1 -2
BITMAP
00
00
00
00
08
49
2A
1C
08
1C
2A
49
08
00
00
00
ENDCHAR
STARTCHAR 002b
ENCODING 43
SWIDTH 508 0
DWIDTH 9 0
BBX 8 16 1 -2
BITMAP
00
00
00
00
08
08
08
08
7F
08
08
08
08
00
00
00
ENDCHAR
STARTCHAR 002c
ENCODING 44
SWIDTH 508 0
DWIDTH 9 0
BBX 8 16 1 -2
BITMAP
00
00
00
00
00
00
00
00
00
00
00
00
30
10
10
20
ENDCHAR
STARTCHAR 002d
ENCODING 45
SWIDTH 508 0
DWIDTH 9 0
BBX 8 16 1 -2
BITMAP
00
00
00
00
00
00
00
00
7F
00
00
00
00
00
00
00
ENDCHAR
STARTCHAR 002e
ENCODING 46
SWIDTH 508 0
DWIDTH 9 0
BBX 8 16 1 -2
BITMAP
00
00
00
00
00
00
00
00
00
00
00
00
10
10
00
00
ENDCHAR
STARTCHAR 002f
ENCODING 47
SWIDTH 508 0
DWIDTH 9 0
BBX 8 16 1 -2
BITMAP
00
01
01
02
02
04
04
08
08
10
10
20
20
40
40
00
ENDCHAR
STARTCHAR 0030
ENCODING 48
SWIDTH 508 0
DWIDTH 9 0
BBX 8 16 1 -2
BITMAP
00
1C
22
22
41
41
41
41
41
41
41
22
22
1C
00
00
ENDCHAR
STARTCHAR 0031
ENCODING 49
SWIDTH 508 0
DWIDTH 9 0
BBX 8 16 1 -2
BITMAP
00
08
18
28
08
08
08
08
08
08
08
08
08
3E
00
00
ENDCHAR
STARTCHAR 0032
ENCODING 50
SWIDTH 508 0
DWIDTH 9 0
BBX 8 16 1 -2
BITMAP
00
1C
22
41
01
01
01
02
02
04
08
10
20
7F
00
00
ENDCHAR
STARTCHAR 0033
ENCODING 51
SWIDTH 508 0
DWIDTH 9 0
BBX 8 16 1 -2
BITMAP
00
1C
22
41
01
01
02
1C
02
01
01
41
22
1C
00
00
ENDCHAR
STARTCHAR 0034
ENCODING 52
SWIDTH 508 0
DWIDTH 9 0
BBX 8 16 1 -2
BITMAP
00
04
0C
0C
14
14
24
24
44
44
7F
04
04
04
00
00
ENDCHAR
STARTCHAR 0035
ENCODING 53
SWIDTH 508 0
DWIDTH 9 0
BBX 8 16 1 -2
BITMAP
00
7F
40
40
40
40
5C
62
01
01
01
41
22
1C
00
00
ENDCHAR
STARTCHAR 0036
ENCODING 54
SWIDTH 508 0
DWIDTH 9 0
BBX 8 16 1 -2
BITMAP
00
1C
22
41
40
40
5C
62
41
41
41
41
22
1C
00
00
ENDCHAR
STARTCHAR 0037
ENCODING 55
SWIDTH 508 0
DWIDTH 9 0
BBX 8 16 1 -2
BITMAP
00
7F
41
42
02
04
04
04
08
08
08
08
08
08
00
00
ENDCHAR
STARTCHAR 0038
ENCODING 56
SWIDTH 508 0
DWIDTH 9 0
BBX 8 16 1 -2
BITMAP
00
1C
22
41
41
41
22
1C
22
41
41
41
22
1C
00
00
ENDCHAR
STARTCHAR 0039
ENCODING 57
SWIDTH 508 0
DWIDTH 9 0
BBX 8 16 1 -2
BITMAP
00
1C
22
41
41
41
41
23
1D
01
01
41
22
1C
00
00
ENDCHAR
STARTCHAR 003a
ENCODING 58
SWIDTH 508 0
DWIDTH 9 0
BBX 8 16 1 -2
BITMAP
00
00
00
00
08
08
00
00
00
00
08
08
00
00
00
00
ENDCHAR
STARTCHAR 003b
ENCODING 59
SWIDTH 508 0
DWIDTH 9 0
BBX 8 16 1 -2
BITMAP
00
00
00
00
08
08
00
00
00
00
18
08
08
10
00
00
ENDCHAR
STARTCHAR 003c
ENCODING 60
SWIDTH 508 0
DWIDTH 9 0
BBX 8 16 1 -2
BITMAP
00
00
00
02
04
08
10
20
40
20
10
08
04
02
00
00
ENDCHAR
STARTCHAR 003d
ENCODING 61
SWIDTH 508 0
DWIDTH 9 0
BBX 8 16 1 -2
BITMAP
00
00
00
00
00
00
7E
00
00
00
7E
00
00
00
00
00
ENDCHAR
STARTCHAR 003e
ENCODING 62
SWIDTH 508 0
DWIDTH 9 0
BBX 8 16 1 -2
BITMAP
00
00
00
40
20
10
08
04
02
04
08
10
20
40
00
00
ENDCHAR
STARTCHAR 003f
ENCODING 63
SWIDTH 508 0
DWIDTH 9 0
BBX 8 16 1 -2
BITMAP
00
1C
22
41
01
01
02
04
08
08
08
00
08
08
00
00
ENDCHAR
STARTCHAR 0040
ENCODING 64
SWIDTH 508 0
DWIDTH 9 0
BBX 8 16 1 -2
BITMAP
00
00
1E
21
4F
51
51
51
51
51
51
4E
20
1E
00
00
ENDCHAR
STARTCHAR 0041
ENCODING 65
SWIDTH 508 0
DWIDTH 9 0
BBX 8 16 1 -2
BITMAP
00
08
14
22
22
41
41
41
41
7F
41
41
41
41
00
00
ENDCHAR
STARTCHAR 0042
ENCODING 66
SWIDTH 508 0
DWIDTH 9 0
BBX 8 16 1 -2
BITMAP
00
7C
42
41
41
41
42
7C
42
41
41
41
41
7E
00
00
ENDCHAR
STARTCHAR 0043
ENCODING 67
SWIDTH 508 0
DWIDTH 9 0
BBX 8 16 1 -2
BITMAP
00
1C
22
41
40
40
40
40
40
40
40
41
22
1C
00
00
ENDCHAR
STARTCHAR 0044
ENCODING 68
SWIDTH 508 0
DWIDTH 9 0
BBX 8 16 1 -2
BITMAP
00
7C
42
41
41
41
41
41
41
41
41
41
42
7C
00
00
ENDCHAR
STARTCHAR 0045
ENCODING 69
SWIDTH 508 0
DWIDTH 9 0
BBX 8 16 1 -2
BITMAP
00
7F
40
40
40
40
40
7E
40
40
40
40
40
7F
00
00
ENDCHAR
STARTCHAR 0046
ENCODING 70
SWIDTH 508 0
DWIDTH 9 0
BBX 8 16 1 -2
BITMAP
00
7F
40
40
40
40
40
7E
40
40
40
40
40
40
00
00
ENDCHAR
STARTCHAR 0047
ENCODING 71
SWIDTH 508 0
DWIDTH 9 0
BBX 8 16 1 -2
BITMAP
00
1C
22
41
40
40
40
4F
41
41
41
41
22
1C
00
00
ENDCHAR
STARTCHAR 0048
ENCODING 72
SWIDTH 508 0
DWIDTH 9 0
BBX 8 16 1 -2
BITMAP
00
41
41
41
41
41
41
7F
41
41
41
41
41
41
00
00
ENDCHAR
STARTCHAR 0049
ENCODING 73
SWIDTH 508 0
DWIDTH 9 0
BBX 8 16 1 -2
BITMAP
00
3E
08
08
08
08
08
08
08
08
08
08
08
3E
00
00
ENDCHAR
STARTCHAR 004a
ENCODING 74
SWIDTH 508 0
DWIDTH 9 0
BBX 8 16 1 -2
BITMAP
00
01
01
01
01
01
01
01
01
01
41
41
22
1C
00
00
ENDCHAR
STARTCHAR 004b
ENCODING 75
SWIDTH 508 0
DWIDTH 9 0
BBX 8 16 1 -2
BITMAP
00
41
42
44
48
50
60
60
50
48
44
42
41
41
00
00
ENDCHAR
STARTCHAR 004c
ENCODING 76
SWIDTH 508 0
DWIDTH 9 0
BBX 8 16 1 -2
BITMAP
00
40
40
40
40
40
40
40
40
40
40
40
40
7F
00
00
ENDCHAR
STARTCHAR 004d
ENCODING 77
SWIDTH 508 0
DWIDTH 9 0
BBX 8 16 1 -2
BITMAP
00
41
63
63
55
55
49
49
49
41
41
41
41
41
00
00
ENDCHAR
STARTCHAR 004e
ENCODING 78
SWIDTH 508 0
DWIDTH 9 0
BBX 8 16 1 -2
BITMAP
00
41
61
61
51
51
49
49
49
45
45
43
43
41
00
00
ENDCHAR
STARTCHAR 004f
ENCODING 79
SWIDTH 508 0
DWIDTH 9 0
BBX 8 16 1 -2
BITMAP
00
1C
22
41
41
41
41
41
41
41
41
41
22
1C
00
00
ENDCHAR
STARTCHAR 0050
ENCODING 80
SWIDTH 508 0
DWIDTH 9 0
BBX 8 16 1 -2
BITMAP
00
7C
42
41
41
41
42
7C
40
40
40
40
40
40
00
00
ENDCHAR
STARTCHAR 0051
ENCODING 81
SWIDTH 508 0
DWIDTH 9 0
BBX 8 16 1 -2
BITMAP
00
1C
22
41
41
41
41
41
41
71
49
49
26
1E
02
01
ENDCHAR
STARTCHAR 0052
ENCODING 82
SWIDTH 508 0
DWIDTH 9 0
BBX 8 16 1 -2
BITMAP
00
7C
42
41
41
41
42
7C
42
41
41
41
41
41
00
00
ENDCHAR
STARTCHAR 0053
ENCODING 83
SWIDTH 508 0
DWIDTH 9 0
BBX 8 16 1 -2
BITMAP
00
1C
22
41
41
40
20
1C
02
01
41
41
22
1C
00
00
ENDCHAR
STARTCHAR 0054
ENCODING 84
SWIDTH 508 0
DWIDTH 9 0
BBX 8 16 1 -2
BITMAP
00
7F
08
08
08
08
08
08
08
08
08
08
08
08
00
00
ENDCHAR
STARTCHAR 0055
ENCODING 85
SWIDTH 508 0
DWIDTH 9 0
BBX 8 16 1 -2
BITMAP
00
41
41
41
41
41
41
41
41
41
41
41
22
1C
00
00
ENDCHAR
STARTCHAR 0056
ENCODING 86
SWIDTH 508 0
DWIDTH 9 0
BBX 8 16 1 -2
BITMAP
00
41
41
41
41
22
22
22
22
14
14
14
08
08
00
00
ENDCHAR
STARTCHAR 0057
ENCODING 87
SWIDTH 508 0
DWIDTH 9 0
BBX 8 16 1 -2
BITMAP
00
49
49
49
49
49
49
55
55
22
22
22
22
22
00
00
ENDCHAR
STARTCHAR 0058
ENCODING 88
SWIDTH 508 0
DWIDTH 9 0
BBX 8 16 1 -2
BITMAP
00
41
41
22
22
14
14
08
14
14
22
22
41
41
00
00
ENDCHAR
STARTCHAR 0059
ENCODING 89
SWIDTH 508 0
DWIDTH 9 0
BBX 8 16 1 -2
BITMAP
00
41
41
41
22
22
14
08
08
08
08
08
08
08
00
00
ENDCHAR
STARTCHAR 005a
ENCODING 90
SWIDTH 508 0
DWIDTH 9 0
BBX 8 16 1 -2
BITMAP
00
7F
01
02
02
04
04
08
08
10
20
20
40
7F
00
00
ENDCHAR
STARTCHAR 005b
ENCODING 91
SWIDTH 508 0
DWIDTH 9 0
BBX 8 16 1 -2
BITMAP
00
1F
10
10
10
10
10
10
10
10
10
10
10
10
10
1F
ENDCHAR
STARTCHAR 005c
ENCODING 92
SWIDTH 508 0
DWIDTH 9 0
BBX 8 16 1 -2
BITMAP
00
40
40
20
20
10
10
08
08
04
04
02
02
01
01
00
ENDCHAR
STARTCHAR 005d
ENCODING 93
SWIDTH 508 0
DWIDTH 9 0
BBX 8 16 1 -2
BITMAP
00
F0
10
10
10
10
10
10
10
10
10
10
10
10
10
F0
ENDCHAR
STARTCHAR 005e
ENCODING 94
SWIDTH 508 0
DWIDTH 9 0
BBX 8 16 1 -2
BITMAP
18
24
42
00
00
00
00
00
00
00
00
00
00
00
00
00
ENDCHAR
STARTCHAR 005f
ENCODING 95
SWIDTH 508 0
DWIDTH 9 0
BBX 8 16 1 -2
BITMAP
00
00
00
00
00
00
00
00
00
00
00
00
00
00
00
7F
ENDCHAR
STARTCHAR 0060
ENCODING 96
SWIDTH 508 0
DWIDTH 9 0
BBX 8 16 1 -2
BITMAP
0C
08
08
04
00
00
00
00
00
00
00
00
00
00
00
00
ENDCHAR
STARTCHAR 0061
ENCODING 97
SWIDTH 508 0
DWIDTH 9 0
BBX 8 16 1 -2
BITMAP
00
00
00
00
00
00
3E
41
01
3F
41
41
43
3D
00
00
ENDCHAR
STARTCHAR 0062
ENCODING 98
SWIDTH 508 0
DWIDTH 9 0
BBX 8 16 1 -2
BITMAP
00
40
40
40
40
40
5C
62
41
41
41
41
62
5C
00
00
ENDCHAR
STARTCHAR 0063
ENCODING 99
SWIDTH 508 0
DWIDTH 9 0
BBX 8 16 1 -2
BITMAP
00
00
00
00
00
00
1C
22
41
40
40
41
22
1C
00
00
ENDCHAR
STARTCHAR 0064
ENCODING 100
SWIDTH 508 0
DWIDTH 9 0
BBX 8 16 1 -2
BITMAP
00
01
01
01
01
01
1D
23
41
41
41
41
23
1D
00
00
ENDCHAR
STARTCHAR 0065
ENCODING 101
SWIDTH 508 0
DWIDTH 9 0
BBX 8 16 1 -2
BITMAP
00
00
00
00
00
00
1C
22
41
7F
40
41
22
1C
00
00
ENDCHAR
STARTCHAR 0066
ENCODING 102
SWIDTH 508 0
DWIDTH 9 0
BBX 8 16 1 -2
BITMAP
00
0E
11
10
10
10
10
7C
10
10
10
10
10
10
00
00
ENDCHAR
STARTCHAR 0067
ENCODING 103
SWIDTH 508 0
DWIDTH 9 0
BBX 8 16 1 -2
BITMAP
00
00
00
00
00
00
3D
42
42
42
3C
20
5E
41
41
3E
ENDCHAR
STARTCHAR 0068
ENCODING 104
SWIDTH 508 0
DWIDTH 9 0
BBX 8 16 1 -2
BITMAP
00
40
40
40
40
40
5C
62
41
41
41
41
41
41
00
00
ENDCHAR
STARTCHAR 0069
ENCODING 105
SWIDTH 508 0
DWIDTH 9 0
BBX 8 16 1 -2
BITMAP
00
00
08
08
00
00
08
08
08
08
08
08
08
08
00
00
ENDCHAR
STARTCHAR 006a
ENCODING 106
SWIDTH 508 0
DWIDTH 9 0
BBX 8 16 1 -2
BITMAP
00
00
02
02
00
00
02
02
02
02
02
02
02
42
44
38
ENDCHAR
STARTCHAR 006b
ENCODING 107
SWIDTH 508 0
DWIDTH 9 0
BBX 8 16 1 -2
BITMAP
00
40
40
40
40
40
42
44
48
70
48
44
42
41
00
00
ENDCHAR
STARTCHAR 006c
ENCODING 108
SWIDTH 508 0
DWIDTH 9 0
BBX 8 16 1 -2
BITMAP
00
08
08
08
08
08
08
08
08
08
08
08
08
08
00
00
ENDCHAR
STARTCHAR 006d
ENCODING 109
SWIDTH 508 0
DWIDTH 9 0
BBX 8 16 1 -2
BITMAP
00
00
00
00
00
00
76
49
49
49
49
49
49
49
00
00
ENDCHAR
STARTCHAR 006e
ENCODING 110
SWIDTH 508 0
DWIDTH 9 0
BBX 8 16 1 -2
BITMAP
00
00
00
00
00
00
5C
62
41
41
41
41
41
41
00
00
ENDCHAR
STARTCHAR 006f
ENCODING 111
SWIDTH 508 0
DWIDTH 9 0
BBX 8 16 1 -2
BITMAP
00
00
00
00
00
00
1C
22
41
41
41
41
22
1C
00
00
ENDCHAR
STARTCHAR 0070
ENCODING 112
SWIDTH 508 0
DWIDTH 9 0
BBX 8 16 1 -2
BITMAP
00
00
00
00
00
00
5C
62
41
41
41
41
62
5C
40
40
ENDCHAR
STARTCHAR 0071
ENCODING 113
SWIDTH 508 0
DWIDTH 9 0
BBX 8 16 1 -2
BITMAP
00
00
00
00
00
00
1D
23
41
41
41
41
23
1D
01
01
ENDCHAR
STARTCHAR 0072
ENCODING 114
SWIDTH 508 0
DWIDTH 9 0
BBX 8 16 1 -2
BITMAP
00
00
00
00
00
00
5E
61
40
40
40
40
40
40
00
00
ENDCHAR
STARTCHAR 0073
ENCODING 115
SWIDTH 508 0
DWIDTH 9 0
BBX 8 16 1 -2
BITMAP
00
00
00
00
00
00
3E
41
20
18
06
01
41
3E
00
00
ENDCHAR
STARTCHAR 0074
ENCODING 116
SWIDTH 508 0
DWIDTH 9 0
BBX 8 16 1 -2
BITMAP
00
08
08
08
08
08
7F
08
08
08
08
08
08
07
00
00
ENDCHAR
STARTCHAR 0075
ENCODING 117
SWIDTH 508 0
DWIDTH 9 0
BBX 8 16 1 -2
BITMAP
00
00
00
00
00
00
41
41
41
41
41
41
23
1D
00
00
ENDCHAR
STARTCHAR 0076
ENCODING 118
SWIDTH 508 0
DWIDTH 9 0
BBX 8 16 1 -2
BITMAP
00
00
00
00
00
00
41
41
41
22
22
14
14
08
00
00
ENDCHAR
STARTCHAR 0077
ENCODING 119
SWIDTH 508 0
DWIDTH 9 0
BBX 8 16 1 -2
BITMAP
00
00
00
00
00
00
49
49
49
49
55
22
22
22
00
00
ENDCHAR
STARTCHAR 0078
ENCODING 120
SWIDTH 508 0
DWIDTH 9 0
BBX 8 16 1 -2
BITMAP
00
00
00
00
00
00
41
22
14
08
08
14
22
41
00
00
ENDCHAR
STARTCHAR 0079
ENCODING 121
SWIDTH 508 0
DWIDTH 9 0
BBX 8 16 1 -2
BITMAP
00
00
00
00
00
00
41
41
21
22
12
0C
04
08
48
30
ENDCHAR
STARTCHAR 007a
ENCODING 122
SWIDTH 508 0
DWIDTH 9 0
BBX 8 16 1 -2
BITMAP
00
00
00
00
00
00
7F
02
04
08
08
10
20
7F
00
00
ENDCHAR
STARTCHAR 007b
ENCODING 123
SWIDTH 508 0
DWIDTH 9 0
BBX 8 16 1 -2
BITMAP
00
06
08
08
08
08
08
08
10
08
08
08
08
08
08
06
ENDCHAR
STARTCHAR 007c
ENCODING 124
SWIDTH 508 0
DWIDTH 9 0
BBX 8 16 1 -2
BITMAP
00
08
08
08
08
08
08
08
08
08
08
08
08
08
08
08
ENDCHAR
STARTCHAR 007d
ENCODING 125
SWIDTH 508 0
DWIDTH 9 0
BBX 8 16 1 -2
BITMAP
00
60
10
10
10
10
10
10
08
10
10
10
10
10
10
60
ENDCHAR
STARTCHAR 007e
ENCODING 126
SWIDTH 508 0
DWIDTH 9 0
BBX 8 16 1 -2
BITMAP
00
20
51
49
06
00
00
00
00
00
00
00
00
00
00
00
ENDCHAR
STARTCHAR 007f
ENCODING 127
SWIDTH 508 0
DWIDTH 9 0
BBX 8 16 1 -2
BITMAP
00
00
00
00
00
00
00
00
00
00
00
00
00
00
00
00
ENDCHAR
STARTCHAR 00a0
ENCODING 160
SWIDTH 508 0
DWIDTH 9 0
BBX 8 16 1 -2
BITMAP
00
00
00
00
00
00
00
00
00
00
00
00
00
00
00
00
ENDCHAR
STARTCHAR 00a1
ENCODING 161
SWIDTH 508 0
DWIDTH 9 0
BBX 8 16 1 -2
BITMAP
00
08
08
00
00
08
08
08
08
08
08
08
08
08
00
00
ENDCHAR
STARTCHAR 00a2
ENCODING 162
SWIDTH 508 0
DWIDTH 9 0
BBX 8 16 1 -2
BITMAP
00
00
00
00
00
08
3E
49
48
48
48
48
49
3E
08
00
ENDCHAR
STARTCHAR 00a3
ENCODING 163
SWIDTH 508 0
DWIDTH 9 0
BBX 8 16 1 -2
BITMAP
00
00
00
00
0E
11
10
10
10
7C
10
10
3C
53
20
00
ENDCHAR
STARTCHAR 00a4
ENCODING 164
SWIDTH 508 0
DWIDTH 9 0
BBX 8 16 1 -2
BITMAP
00
00
00
00
00
41
3E
22
22
22
3E
41
00
00
00
00
ENDCHAR
STARTCHAR 00a5
ENCODING 165
SWIDTH 508 0
DWIDTH 9 0
BBX 8 16 1 -2
BITMAP
00
41
22
14
08
7F
08
08
7F
08
08
08
08
08
00
00
ENDCHAR
STARTCHAR 00a6
ENCODING 166
SWIDTH 508 0
DWIDTH 9 0
BBX 8 16 1 -2
BITMAP
00
00
08
08
08
08
00
00
00
08
08
08
08
00
00
00
ENDCHAR
STARTCHAR 00a7
ENCODING 167
SWIDTH 508 0
DWIDTH 9 0
BBX 8 16 1 -2
BITMAP
00
1C
22
41
20
1C
22
41
22
1C
02
41
22
1C
00
00
ENDCHAR
STARTCHAR 00a8
ENCODING 168
SWIDTH 508 0
DWIDTH 9 0
BBX 8 16 1 -2
BITMAP
00
48
48
00
00
00
00
00
00
00
00
00
00
00
00
00
ENDCHAR
STARTCHAR 00a9
ENCODING 169
SWIDTH 508 0
DWIDTH 9 0
BBX 8 16 1 -2
BITMAP
00
1C
22
4D
53
61
61
61
61
61
53
4D
22
1C
00
00
ENDCHAR
STARTCHAR 00aa
ENCODING 170
SWIDTH 508 0
DWIDTH 9 0
BBX 8 16 1 -2
BITMAP
00
1C
22
1E
22
26
1A
00
3E
00
00
00
00
00
00
00
ENDCHAR
STARTCHAR 00ab
ENCODING 171
SWIDTH 508 0
DWIDTH 9 0
BBX 8 16 1 -2
BITMAP
00
00
00
00
00
09
12
24
48
24
12
09
00
00
00
00
ENDCHAR
STARTCHAR 00ac
ENCODING 172
SWIDTH 508 0
DWIDTH 9 0
BBX 8 16 1 -2
BITMAP
00
00
00
00
00
00
00
00
00
F8
08
08
08
00
00
00
ENDCHAR
STARTCHAR 00ad
ENCODING 173
SWIDTH 508 0
DWIDTH 9 0
BBX 8 16 1 -2
BITMAP
00
00
00
00
00
00
00
00
00
F8
00
00
00
00
00
00
ENDCHAR
STARTCHAR 00ae
ENCODING 174
SWIDTH 508 0
DWIDTH 9 0
BBX 8 16 1 -2
BITMAP
00
1C
22
79
65
65
65
79
69
65
65
65
22
1C
00
00
ENDCHAR
STARTCHAR 00af
ENCODING 175
SWIDTH 508 0
DWIDTH 9 0
BBX 8 16 1 -2
BITMAP
00
00
F8
00
00
00
00
00
00
00
00
00
00
00
00
00
ENDCHAR
STARTCHAR 00b0
ENCODING 176
SWIDTH 508 0
DWIDTH 9 0
BBX 8 16 1 -2
BITMAP
00
30
48
48
30
00
00
00
00
00
00
00
00
00
00
00
ENDCHAR
STARTCHAR 00b1
ENCODING 177
SWIDTH 508 0
DWIDTH 9 0
BBX 8 16 1 -2
BITMAP
00
00
00
08
08
08
08
7F
08
08
08
08
7F
00
00
00
ENDCHAR
STARTCHAR 00b2
ENCODING 178
SWIDTH 508 0
DWIDTH 9 0
BBX 8 16 1 -2
BITMAP
00
30
48
08
10
20
40
78
00
00
00
00
00
00
00
00
ENDCHAR
STARTCHAR 00b3
ENCODING 179
SWIDTH 508 0
DWIDTH 9 0
BBX 8 16 1 -2
BITMAP
00
30
48
08
30
08
48
30
00
00
00
00
00
00
00
00
ENDCHAR
STARTCHAR 00b4
ENCODING 180
SWIDTH 508 0
DWIDTH 9 0
BBX 8 16 1 -2
BITMAP
00
08
10
20
40
00
00
00
00
00
00
00
00
00
00
00
ENDCHAR
STARTCHAR 00b5
ENCODING 181
SWIDTH 508 0
DWIDTH 9 0
BBX 8 16 1 -2
BITMAP
00
00
00
00
00
00
00
42
42
42
42
42
66
5A
40
40
ENDCHAR
STARTCHAR 00b6
ENCODING 182
SWIDTH 508 0
DWIDTH 9 0
BBX 8 16 1 -2
BITMAP
00
00
00
3E
4A
4A
4A
4A
3A
0A
0A
0A
0A
0A
0A
0E
ENDCHAR
STARTCHAR 00b7
ENCODING 183
SWIDTH 508 0
DWIDTH 9 0
BBX 8 16 1 -2
BITMAP
00
00
00
00
00
00
00
08
00
00
00
00
00
00
00
00
ENDCHAR
STARTCHAR 00b8
ENCODING 184
SWIDTH 508 0
DWIDTH 9 0
BBX 8 16 1 -2
BITMAP
00
00
00
00
00
00
00
00
00
00
00
00
00
10
10
20
ENDCHAR
STARTCHAR 00b9
ENCODING 185
SWIDTH 508 0
DWIDTH 9 0
BBX 8 16 1 -2
BITMAP
00
00
20
60
20
20
20
20
00
00
00
00
00
00
00
00
ENDCHAR
STARTCHAR 00ba
ENCODING 186
SWIDTH 508 0
DWIDTH 9 0
BBX 8 16 1 -2
BITMAP
00
00
18
24
24
18
00
3C
00
00
00
00
00
00
00
00
ENDCHAR
STARTCHAR 00bb
ENCODING 187
SWIDTH 508 0
DWIDTH 9 0
BBX 8 16 1 -2
BITMAP
00
00
00
00
00
48
24
12
09
12
24
48
00
00
00
00
ENDCHAR
STARTCHAR 00bc
ENCODING 188
SWIDTH 508 0
DWIDTH 9 0
BBX 8 16 1 -2
BITMAP
00
00
21
62
22
24
24
28
12
16
2A
2F
42
42
00
00
ENDCHAR
STARTCHAR 00bd
ENCODING 189
SWIDTH 508 0
DWIDTH 9 0
BBX 8 16 1 -2
BITMAP
00
00
21
62
22
24
24
28
16
19
21
22
44
4F
00
00
ENDCHAR
STARTCHAR 00be
ENCODING 190
SWIDTH 508 0
DWIDTH 9 0
BBX 8 16 1 -2
BITMAP
00
00
61
12
22
14
64
08
12
16
2A
2F
42
42
00
00
ENDCHAR
STARTCHAR 00bf
ENCODING 191
SWIDTH 508 0
DWIDTH 9 0
BBX 8 16 1 -2
BITMAP
00
08
08
00
08
08
08
08
10
20
40
41
22
1C
00
00
ENDCHAR
STARTCHAR 00c0
ENCODING 192
SWIDTH 508 0
DWIDTH 9 0
BBX 8 16 1 -2
BITMAP
10
08
04
08
14
22
22
41
41
7F
41
41
41
41
00
00
ENDCHAR
STARTCHAR 00c1
ENCODING 193
SWIDTH 508 0
DWIDTH 9 0
BBX 8 16 1 -2
BITMAP
04
08
10
08
14
22
22
41
41
7F
41
41
41
41
00
00
ENDCHAR
STARTCHAR 00c2
ENCODING 194
SWIDTH 508 0
DWIDTH 9 0
BBX 8 16 1 -2
BITMAP
1C
22
00
08
14
22
22
41
41
7F
41
41
41
41
00
00
ENDCHAR
STARTCHAR 00c3
ENCODING 195
SWIDTH 508 0
DWIDTH 9 0
BBX 8 16 1 -2
BITMAP
12
2C
00
08
14
22
22
41
41
7F
41
41
41
41
00
00
ENDCHAR
STARTCHAR 00c4
ENCODING 196
SWIDTH 508 0
DWIDTH 9 0
BBX 8 16 1 -2
BITMAP
00
22
00
08
14
22
22
41
41
7F
41
41
41
41
00
00
ENDCHAR
STARTCHAR 00c5
ENCODING 197
SWIDTH 508 0
DWIDTH 9 0
BBX 8 16 1 -2
BITMAP
08
14
08
14
22
22
41
41
41
7F
41
41
41
41
00
00
ENDCHAR
STARTCHAR 00c6
ENCODING 198
SWIDTH 508 0
DWIDTH 9 0
BBX 8 16 1 -2
BITMAP
00
00
1F
28
48
48
88
8E
F8
88
88
88
88
8F
00
00
ENDCHAR
STARTCHAR 00c7
ENCODING 199
SWIDTH 508 0
DWIDTH 9 0
BBX 8 16 1 -2
BITMAP
00
00
1C
22
41
40
40
40
40
40
40
41
22
1C
08
10
ENDCHAR
STARTCHAR 00c8
ENCODING 200
SWIDTH 508 0
DWIDTH 9 0
BBX 8 16 1 -2
BITMAP
10
08
04
7F
40
40
40
40
7E
40
40
40
40
7F
00
00
ENDCHAR
STARTCHAR 00c9
ENCODING 201
SWIDTH 508 0
DWIDTH 9 0
BBX 8 16 1 -2
BITMAP
04
08
10
7F
40
40
40
40
7E
40
40
40
40
7F
00
00
ENDCHAR
STARTCHAR 00ca
ENCODING 202
SWIDTH 508 0
DWIDTH 9 0
BBX 8 16 1 -2
BITMAP
1C
22
00
7F
40
40
40
40
7E
40
40
40
40
7F
00
00
ENDCHAR
STARTCHAR 00cb
ENCODING 203
SWIDTH 508 0
DWIDTH 9 0
BBX 8 16 1 -2
BITMAP
00
22
00
7F
40
40
40
40
7E
40
40
40
40
7F
00
00
ENDCHAR
STARTCHAR 00cc
ENCODING 204
SWIDTH 508 0
DWIDTH 9 0
BBX 8 16 1 -2
BITMAP
10
08
04
3E
08
08
08
08
08
08
08
08
08
3E
00
00
ENDCHAR
STARTCHAR 00cd
ENCODING 205
SWIDTH 508 0
DWIDTH 9 0
BBX 8 16 1 -2
BITMAP
04
08
10
3E
08
08
08
08
08
08
08
08
08
3E
00
00
ENDCHAR
STARTCHAR 00ce
ENCODING 206
SWIDTH 508 0
DWIDTH 9 0
BBX 8 16 1 -2
BITMAP
08
14
00
3E
08
08
08
08
08
08
08
08
08
3E
00
00
ENDCHAR
STARTCHAR 00cf
ENCODING 207
SWIDTH 508 0
DWIDTH 9 0
BBX 8 16 1 -2
BITMAP
00
14
00
3E
08
08
08
08
08
08
08
08
08
3E
00
00
ENDCHAR
STARTCHAR 00d0
ENCODING 208
SWIDTH 508 0
DWIDTH 9 0
BBX 8 16 1 -2
BITMAP
00
00
7C
42
41
41
41
E1
41
41
41
41
42
7C
00
00
ENDCHAR
STARTCHAR 00d1
ENCODING 209
SWIDTH 508 0
DWIDTH 9 0
BBX 8 16 1 -2
BITMAP
12
2C
00
41
61
61
51
51
49
49
45
43
43
41
00
00
ENDCHAR
STARTCHAR 00d2
ENCODING 210
SWIDTH 508 0
DWIDTH 9 0
BBX 8 16 1 -2
BITMAP
20
10
08
1C
22
41
41
41
41
41
41
41
22
1C
00
00
ENDCHAR
STARTCHAR 00d3
ENCODING 211
SWIDTH 508 0
DWIDTH 9 0
BBX 8 16 1 -2
BITMAP
04
08
10
1C
22
41
41
41
41
41
41
41
22
1C
00
00
ENDCHAR
STARTCHAR 00d4
ENCODING 212
SWIDTH 508 0
DWIDTH 9 0
BBX 8 16 1 -2
BITMAP
1C
22
00
1C
22
41
41
41
41
41
41
41
22
1C
00
00
ENDCHAR
STARTCHAR 00d5
ENCODING 213
SWIDTH 508 0
DWIDTH 9 0
BBX 8 16 1 -2
BITMAP
12
2C
00
1C
22
41
41
41
41
41
41
41
22
1C
00
00
ENDCHAR
STARTCHAR 00d6
ENCODING 214
SWIDTH 508 0
DWIDTH 9 0
BBX 8 16 1 -2
BITMAP
00
14
00
1C
22
41
41
41
41
41
41
41
22
1C
00
00
ENDCHAR
STARTCHAR 00d7
ENCODING 215
SWIDTH 508 0
DWIDTH 9 0
BBX 8 16 1 -2
BITMAP
00
00
00
00
00
41
22
14
08
14
22
41
00
00
00
00
ENDCHAR
STARTCHAR 00d8
ENCODING 216
SWIDTH 508 0
DWIDTH 9 0
BBX 8 16 1 -2
BITMAP
00
01
01
1E
22
45
45
49
49
51
51
22
3C
40
40
00
ENDCHAR
STARTCHAR 00d9
ENCODING 217
SWIDTH 508 0
DWIDTH 9 0
BBX 8 16 1 -2
BITMAP
20
10
08
41
41
41
41
41
41
41
41
41
22
1C
00
00
ENDCHAR
STARTCHAR 00da
ENCODING 218
SWIDTH 508 0
DWIDTH 9 0
BBX 8 16 1 -2
BITMAP
04
08
10
41
41
41
41
41
41
41
41
41
22
1C
00
00
ENDCHAR
STARTCHAR 00db
ENCODING 219
SWIDTH 508 0
DWIDTH 9 0
BBX 8 16 1 -2
BITMAP
1C
22
00
41
41
41
41
41
41
41
41
41
22
1C
00
00
ENDCHAR
STARTCHAR 00dc
ENCODING 220
SWIDTH 508 0
DWIDTH 9 0
BBX 8 16 1 -2
BITMAP
00
14
00
41
41
41
41
41
41
41
41
41
22
1C
00
00
ENDCHAR
STARTCHAR 00dd
ENCODING 221
SWIDTH 508 0
DWIDTH 9 0
BBX 8 16 1 -2
BITMAP
04
08
10
41
41
41
22
14
08
08
08
08
08
08
00
00
ENDCHAR
STARTCHAR 00de
ENCODING 222
SWIDTH 508 0
DWIDTH 9 0
BBX 8 16 1 -2
BITMAP
00
00
40
40
78
44
42
42
42
42
44
78
40
40
00
00
ENDCHAR
STARTCHAR 00df
ENCODING 223
SWIDTH 508 0
DWIDTH 9 0
BBX 8 16 1 -2
BITMAP
00
00
1C
22
22
22
22
3C
22
21
21
21
22
7C
00
00
ENDCHAR
STARTCHAR 00e0
ENCODING 224
SWIDTH 508 0
DWIDTH 9 0
BBX 8 16 1 -2
BITMAP
00
10
08
04
00
00
3E
41
01
3F
41
41
43
3D
00
00
ENDCHAR
STARTCHAR 00e1
ENCODING 225
SWIDTH 508 0
DWIDTH 9 0
BBX 8 16 1 -2
BITMAP
00
04
08
10
00
00
3E
41
01
3F
41
41
43
3D
00
00
ENDCHAR
STARTCHAR 00e2
ENCODING 226
SWIDTH 508 0
DWIDTH 9 0
BBX 8 16 1 -2
BITMAP
00
00
1C
22
00
00
3E
41
01
3F
41
41
43
3D
00
00
ENDCHAR
STARTCHAR 00e3
ENCODING 227
SWIDTH 508 0
DWIDTH 9 0
BBX 8 16 1 -2
BITMAP
00
00
12
2C
00
00
3E
41
01
3F
41
41
43
3D
00
00
ENDCHAR
STARTCHAR 00e4
ENCODING 228
SWIDTH 508 0
DWIDTH 9 0
BBX 8 16 1 -2
BITMAP
00
00
00
22
00
00
3E
41
01
3F
41
41
43
3D
00
00
ENDCHAR
STARTCHAR 00e5
ENCODING 229
SWIDTH 508 0
DWIDTH 9 0
BBX 8 16 1 -2
BITMAP
00
08
14
08
00
00
3E
41
01
3F
41
41
43
3D
00
00
ENDCHAR
STARTCHAR 00e6
ENCODING 230
SWIDTH 508 0
DWIDTH 9 0
BBX 8 16 1 -2
BITMAP
00
00
00
00
00
3E
49
09
3F
48
49
3E
00
00
00
00
ENDCHAR
STARTCHAR 00e7
ENCODING 231
SWIDTH 508 0
DWIDTH 9 0
BBX 8 16 1 -2
BITMAP
00
00
00
00
00
00
1C
22
41
40
40
41
22
1C
08
10
ENDCHAR
STARTCHAR 00e8
ENCODING 232
SWIDTH 508 0
DWIDTH 9 0
BBX 8 16 1 -2
BITMAP
00
10
08
04
00
00
1C
22
41
7F
40
41
22
1C
00
00
ENDCHAR
STARTCHAR 00e9
ENCODING 233
SWIDTH 508 0
DWIDTH 9 0
BBX 8 16 1 -2
BITMAP
00
04
08
10
00
00
1C
22
41
7F
40
41
22
1C
00
00
ENDCHAR
STARTCHAR 00ea
ENCODING 234
SWIDTH 508 0
DWIDTH 9 0
BBX 8 16 1 -2
BITMAP
00
00
1C
22
00
00
1C
22
41
7F
40
41
22
1C
00
00
ENDCHAR
STARTCHAR 00eb
ENCODING 235
SWIDTH 508 0
DWIDTH 9 0
BBX 8 16 1 -2
BITMAP
00
00
00
22
00
00
1C
22
41
7F
40
41
22
1C
00
00
ENDCHAR
STARTCHAR 00ec
ENCODING 236
SWIDTH 508 0
DWIDTH 9 0
BBX 8 16 1 -2
BITMAP
00
10
08
04
00
00
08
08
08
08
08
08
08
08
00
00
ENDCHAR
STARTCHAR 00ed
ENCODING 237
SWIDTH 508 0
DWIDTH 9 0
BBX 8 16 1 -2
BITMAP
00
04
08
10
00
00
08
08
08
08
08
08
08
08
00
00
ENDCHAR
STARTCHAR 00ee
ENCODING 238
SWIDTH 508 0
DWIDTH 9 0
BBX 8 16 1 -2
BITMAP
00
00
08
14
00
00
08
08
08
08
08
08
08
08
00
00
ENDCHAR
STARTCHAR 00ef
ENCODING 239
SWIDTH 508 0
DWIDTH 9 0
BBX 8 16 1 -2
BITMAP
00
00
00
14
00
00
08
08
08
08
08
08
08
08
00
00
ENDCHAR
STARTCHAR 00f0
ENCODING 240
SWIDTH 508 0
DWIDTH 9 0
BBX 8 16 1 -2
BITMAP
00
26
18
28
48
04
1C
22
41
41
41
41
22
1C
00
00
ENDCHAR
STARTCHAR 00f1
ENCODING 241
SWIDTH 508 0
DWIDTH 9 0
BBX 8 16 1 -2
BITMAP
00
00
12
2C
00
00
5C
62
41
41
41
41
41
41
00
00
ENDCHAR
STARTCHAR 00f2
ENCODING 242
SWIDTH 508 0
DWIDTH 9 0
BBX 8 16 1 -2
BITMAP
00
10
08
04
00
00
1C
22
41
41
41
41
22
1C
00
00
ENDCHAR
STARTCHAR 00f3
ENCODING 243
SWIDTH 508 0
DWIDTH 9 0
BBX 8 16 1 -2
BITMAP
00
04
08
10
00
00
1C
22
41
41
41
41
22
1C
00
00
ENDCHAR
STARTCHAR 00f4
ENCODING 244
SWIDTH 508 0
DWIDTH 9 0
BBX 8 16 1 -2
BITMAP
00
00
1C
22
00
00
1C
22
41
41
41
41
22
1C
00
00
ENDCHAR
STARTCHAR 00f5
ENCODING 245
SWIDTH 508 0
DWIDTH 9 0
BBX 8 16 1 -2
BITMAP
00
00
12
2C
00
00
1C
22
41
41
41
41
22
1C
00
00
ENDCHAR
STARTCHAR 00f6
ENCODING 246
SWIDTH 508 0
DWIDTH 9 0
BBX 8 16 1 -2
BITMAP
00
00
00
22
00
00
1C
22
41
41
41
41
22
1C
00
00
ENDCHAR
STARTCHAR 00f7
ENCODING 247
SWIDTH 508 0
DWIDTH 9 0
BBX 8 16 1 -2
BITMAP
00
00
00
00
00
08
08
00
7F
00
08
08
00
00
00
00
ENDCHAR
STARTCHAR 00f8
ENCODING 248
SWIDTH 508 0
DWIDTH 9 0
BBX 8 16 1 -2
BITMAP
00
00
00
00
01
02
1C
26
49
49
51
51
22
3C
40
40
ENDCHAR
STARTCHAR 00f9
ENCODING 249
SWIDTH 508 0
DWIDTH 9 0
BBX 8 16 1 -2
BITMAP
00
00
10
08
04
00
41
41
41
41
41
41
23
1D
00
00
ENDCHAR
STARTCHAR 00fa
ENCODING 250
SWIDTH 508 0
DWIDTH 9 0
BBX 8 16 1 -2
BITMAP
00
00
04
08
10
00
41
41
41
41
41
41
23
1D
00
00
ENDCHAR
STARTCHAR 00fb
ENCODING 251
SWIDTH 508 0
DWIDTH 9 0
BBX 8 16 1 -2
BITMAP
00
00
1C
22
00
00
41
41
41
41
41
41
23
1D
00
00
ENDCHAR
STARTCHAR 00fc
ENCODING 252
SWIDTH 508 0
DWIDTH 9 0
BBX 8 16 1 -2
BITMAP
00
00
00
22
00
00
41
41
41
41
41
41
23
1D
00
00
ENDCHAR
STARTCHAR 00fd
ENCODING 253
SWIDTH 508 0
DWIDTH 9 0
BBX 8 16 1 -2
BITMAP
00
00
04
08
10
00
41
41
41
22
22
14
14
08
48
30
ENDCHAR
STARTCHAR 00fe
ENCODING 254
SWIDTH 508 0
DWIDTH 9 0
BBX 8 16 1 -2
BITMAP
00
00
00
40
40
40
5C
62
41
41
41
62
5C
40
40
00
ENDCHAR
STARTCHAR 00ff
ENCODING 255
SWIDTH 508 0
DWIDTH 9 0
BBX 8 16 1 -2
BITMAP
00
00
00
22
00
00
41
41
41
22
22
14
14
08
48
30
ENDCHAR
ENDFONT
